<svg xmlns="http://www.w3.org/2000/svg" viewBox="0 0 600 600">
  <style>
    .b-mark { fill: #0a0a0a; }
    .b-outline { fill: none; stroke: #ffffff; stroke-opacity: 0.25; stroke-width: 10; }
    @media (prefers-color-scheme: dark) {
      .b-mark { fill: #ffffff; }
      .b-outline { stroke: #0a0a0a; stroke-opacity: 0.25; }
    }
  </style>
  <g transform="translate(0,600) scale(0.1,-0.1)">
    <path class="b-outline" d="M3008 5656 c-17 -25 -44 -50 -60 -57 -16 -6 -33 -20 -38 -30 -6 -10
-10 -112 -10 -227 0 -190 -2 -210 -18 -225 -16 -15 -47 -17 -230 -17 -204 0
-212 -1 -232 -22 -11 -12 -20 -25 -20 -30 0 -4 -9 -17 -20 -28 -18 -18 -33
-20 -180 -20 -151 0 -160 -1 -180 -22 -11 -12 -20 -25 -20 -30 0 -4 -9 -17
-20 -28 -18 -18 -33 -20 -130 -20 -99 0 -111 -2 -130 -22 -11 -12 -20 -25 -20
-30 0 -4 -9 -17 -20 -28 -18 -18 -33 -20 -130 -20 -120 0 -126 -3 -162 -68
-16 -31 -19 -32 -83 -32 -71 0 -84 -8 -117 -68 -16 -31 -20 -32 -78 -32 -73 0
-93 -9 -110 -50 -7 -18 -28 -39 -47 -49 -19 -9 -44 -35 -56 -57 -22 -37 -25
-39 -77 -42 -85 -4 -98 -9 -119 -51 -12 -22 -32 -43 -49 -50 -16 -7 -38 -28
-49 -48 -11 -19 -38 -45 -59 -57 -39 -21 -39 -22 -42 -91 -3 -74 -16 -99 -56
-109 -12 -3 -32 -23 -44 -44 -13 -23 -35 -45 -52 -52 -17 -7 -35 -21 -40 -31
-13 -23 -13 -415 0 -438 5 -10 23 -24 40 -31 17 -7 39 -29 52 -51 11 -21 34
-43 50 -50 17 -7 37 -28 48 -49 23 -45 34 -50 111 -50 57 0 61 -2 77 -32 36
-65 42 -68 162 -68 97 0 112 -2 130 -20 11 -11 20 -24 20 -28 0 -5 9 -18 20
-30 21 -22 22 -22 430 -22 456 0 422 -5 462 68 16 30 20 32 77 32 77 0 88 5
111 50 11 21 31 42 48 49 16 7 38 28 49 48 11 19 38 45 59 57 39 21 39 22 42
91 3 69 19 105 47 105 7 0 23 8 35 18 21 17 23 26 23 132 0 149 -1 150 -154
150 -98 0 -110 -2 -129 -22 -11 -12 -20 -25 -20 -30 0 -4 -9 -17 -20 -28 -18
-18 -33 -20 -180 -20 -151 0 -160 -1 -180 -22 -11 -12 -20 -25 -20 -30 0 -4
-9 -17 -20 -28 -19 -19 -33 -20 -224 -20 -112 0 -212 3 -221 6 -9 4 -24 23
-35 44 -23 45 -34 50 -109 50 -85 0 -91 10 -91 152 0 123 5 137 57 152 12 4
32 26 45 49 23 41 25 42 78 45 85 4 98 9 119 51 12 23 32 43 50 51 19 7 40 29
54 54 l22 41 73 5 c77 5 79 6 114 69 16 29 20 31 77 31 77 0 88 5 111 50 11
21 26 40 35 44 9 3 63 6 120 6 94 0 106 2 125 22 11 12 20 25 20 30 0 4 9 17
20 28 18 18 33 20 130 20 99 0 111 2 130 22 11 12 20 25 20 30 0 4 9 17 20 28
18 18 33 20 129 20 136 0 141 4 141 99 0 53 4 72 18 84 27 25 69 21 87 -7 14
-21 15 -47 9 -183 -7 -160 -15 -193 -51 -193 -7 0 -22 -9 -33 -20 -19 -19 -20
-33 -20 -333 0 -341 1 -334 -57 -351 -46 -14 -46 -16 -44 -397 2 -272 -1 -364
-10 -375 -7 -9 -27 -21 -45 -29 -41 -17 -41 -20 -48 -207 -6 -163 -1 -178 54
-178 31 0 39 8 55 55 14 40 57 56 85 30 39 -35 14 -105 -38 -105 -24 0 -52
-25 -52 -46 0 -8 -10 -24 -21 -35 -19 -19 -28 -21 -80 -15 -64 8 -77 0 -111
-62 -16 -31 -20 -32 -78 -32 -73 0 -93 -9 -110 -50 -7 -18 -28 -39 -47 -49
-19 -9 -44 -35 -56 -57 -22 -39 -23 -39 -96 -44 -76 -5 -78 -6 -113 -69 -16
-29 -20 -31 -77 -31 -77 0 -88 -5 -111 -50 -11 -21 -31 -42 -48 -49 -16 -7
-39 -29 -50 -50 -12 -21 -35 -44 -50 -50 -16 -7 -39 -29 -50 -50 -12 -21 -35
-44 -50 -50 -16 -7 -39 -29 -50 -50 -12 -21 -35 -44 -50 -50 -16 -7 -39 -29
-50 -50 -12 -21 -35 -44 -50 -50 -16 -7 -39 -29 -50 -50 -13 -22 -35 -44 -52
-51 -17 -7 -35 -21 -40 -31 -13 -23 -13 -215 0 -238 5 -10 23 -24 40 -31 19
-8 39 -28 50 -50 23 -45 34 -50 111 -50 57 0 61 -2 77 -32 40 -73 6 -68 460
-68 380 0 410 1 425 18 14 15 17 53 20 235 4 197 2 218 -14 233 -29 26 -60 14
-89 -36 l-26 -45 -207 -3 c-130 -1 -215 1 -227 8 -30 16 -46 81 -31 131 9 31
20 44 46 55 21 9 42 29 57 56 23 42 25 43 78 46 85 4 98 9 119 51 12 23 32 43
50 51 19 7 40 29 54 54 22 40 24 41 77 44 85 4 97 9 121 52 24 43 30 46 119
58 53 7 56 9 74 50 21 46 50 61 85 43 26 -14 36 -52 22 -80 -6 -11 -28 -25
-49 -30 -27 -8 -42 -20 -57 -48 -11 -20 -33 -44 -50 -53 -51 -28 -53 -44 -43
-270 5 -113 6 -377 3 -586 -5 -261 -3 -388 4 -402 5 -10 24 -25 41 -32 17 -7
39 -29 52 -51 11 -21 34 -43 50 -50 17 -7 37 -28 48 -49 23 -44 35 -50 104
-50 51 0 86 -19 86 -46 0 -20 41 -54 65 -54 53 0 53 -6 43 648 -9 548 -8 605
6 627 10 15 26 25 39 25 56 0 56 3 58 282 0 142 -3 264 -8 273 -6 9 -27 27
-49 39 -46 25 -57 65 -27 98 15 17 25 19 70 13 70 -9 90 -1 113 44 10 21 26
41 35 45 9 3 86 6 170 6 146 0 155 1 175 22 11 12 20 25 20 30 0 4 9 17 20 28
18 18 33 20 130 20 154 0 150 -6 150 198 0 199 -2 202 -100 202 l-70 0 -27 43
c-36 55 -39 57 -103 57 -64 0 -67 -2 -103 -57 l-27 -43 -65 0 c-69 0 -68 1
-121 -67 -24 -31 -30 -33 -85 -33 -91 0 -99 12 -99 153 0 123 2 129 62 155 37
16 50 67 38 152 -6 37 -7 159 -4 285 7 226 12 255 51 255 7 0 22 9 33 20 19
19 20 33 20 333 0 342 -1 334 58 351 42 14 45 34 37 297 -7 222 -6 252 9 274
20 31 58 33 86 5 19 -19 21 -31 18 -129 -5 -166 -48 -151 444 -151 395 0 409
-1 428 -20 11 -11 20 -24 20 -28 0 -5 9 -18 20 -30 19 -20 30 -22 134 -22 138
0 146 -5 146 -98 0 -66 4 -73 60 -100 30 -15 35 -22 35 -52 0 -31 -5 -37 -38
-54 -21 -10 -48 -33 -60 -52 -12 -18 -34 -38 -48 -44 -14 -6 -36 -28 -47 -49
-12 -21 -35 -44 -50 -50 -16 -7 -39 -29 -50 -50 -12 -21 -35 -44 -50 -50 -16
-7 -39 -29 -51 -51 -25 -45 -36 -50 -107 -50 -59 0 -75 -10 -106 -68 -16 -31
-19 -32 -83 -32 -71 0 -84 -8 -117 -68 -16 -31 -19 -32 -83 -32 -71 0 -84 -8
-117 -68 -16 -31 -19 -32 -83 -32 -71 0 -84 -8 -117 -68 -16 -30 -20 -32 -77
-32 -76 0 -87 -4 -112 -49 -11 -20 -35 -45 -52 -56 -22 -14 -35 -32 -41 -58
-14 -55 2 -107 41 -132 17 -11 41 -36 52 -56 12 -20 28 -40 37 -43 9 -3 153
-6 320 -6 291 0 305 -1 324 -20 11 -11 20 -24 20 -28 0 -5 9 -18 20 -30 20
-21 28 -22 230 -22 197 0 211 -1 230 -20 11 -11 20 -24 20 -28 0 -5 9 -18 20
-30 19 -20 31 -22 125 -22 57 0 111 -3 120 -6 9 -4 24 -23 35 -44 23 -45 34
-50 111 -50 57 0 61 -2 77 -32 32 -60 47 -68 115 -68 96 0 97 -2 97 -202 0
-178 -2 -186 -57 -202 -12 -4 -32 -26 -45 -49 -23 -41 -25 -42 -78 -45 -85 -4
-98 -9 -119 -51 -12 -22 -32 -43 -49 -50 -16 -7 -39 -29 -51 -51 -11 -21 -28
-41 -37 -44 -9 -3 -63 -6 -120 -6 -114 0 -121 -3 -156 -68 -16 -30 -20 -32
-77 -32 -77 0 -88 -5 -111 -50 -11 -21 -26 -40 -35 -44 -9 -3 -63 -6 -120 -6
-94 0 -106 -2 -125 -22 -11 -12 -20 -25 -20 -30 0 -4 -9 -17 -20 -28 -18 -18
-33 -20 -130 -20 -99 0 -111 -2 -130 -22 -11 -12 -20 -25 -20 -30 0 -4 -9 -17
-20 -28 -18 -18 -33 -20 -180 -20 -151 0 -160 -1 -180 -22 -11 -12 -20 -25
-20 -30 0 -4 -9 -17 -20 -28 -18 -18 -33 -20 -132 -20 -62 0 -118 -4 -125 -8
-9 -6 -13 -68 -14 -231 -1 -199 1 -224 17 -242 15 -17 32 -19 175 -19 150 0
159 1 179 22 11 12 20 25 20 30 0 4 9 17 20 28 18 18 33 20 180 20 151 0 160
1 180 22 11 12 20 25 20 30 0 4 9 17 20 28 18 18 33 20 180 20 151 0 160 1
180 22 11 12 20 25 20 30 0 4 9 17 20 28 18 18 33 20 130 20 99 0 111 2 130
22 11 12 20 25 20 30 0 4 9 17 20 28 18 18 33 20 130 20 120 0 126 3 162 68
16 31 19 32 83 32 71 0 84 8 117 68 16 31 20 32 78 32 73 0 93 9 110 50 7 18
28 39 47 49 19 9 44 35 56 57 22 37 25 39 77 42 84 4 98 9 118 48 10 20 35 45
58 57 l39 23 3 71 c3 76 7 83 65 112 31 16 32 18 35 88 3 76 7 83 65 112 l32
16 0 225 0 225 -32 16 c-58 29 -62 36 -65 112 l-3 71 -39 22 c-22 13 -46 35
-54 51 -22 44 -41 53 -109 53 -61 0 -65 1 -81 32 -33 60 -46 68 -117 68 -64 0
-67 1 -83 32 -37 68 -36 68 -212 68 -147 0 -162 2 -180 20 -11 11 -20 24 -20
28 0 5 -9 18 -20 30 -19 20 -31 22 -126 22 -58 0 -113 4 -123 10 -10 5 -24 23
-31 40 -8 19 -28 39 -51 51 -76 38 -77 159 -3 197 20 10 45 35 57 58 22 37 25
39 77 42 85 4 98 9 119 51 12 22 32 43 49 50 16 7 39 29 50 50 12 21 35 44 50
50 16 7 39 29 50 50 12 21 35 44 50 50 16 7 38 28 49 48 11 19 38 45 59 57 39
21 39 22 42 91 3 77 10 90 58 110 66 27 70 160 6 187 -55 24 -62 36 -62 108 0
85 -14 100 -92 100 -74 0 -85 5 -108 50 -23 45 -34 50 -111 50 -57 0 -61 2
-77 32 -36 65 -42 68 -162 68 -97 0 -112 2 -130 20 -11 11 -20 24 -20 28 0 5
-9 18 -20 30 l-21 22 -455 0 c-278 0 -462 4 -474 10 -28 15 -39 62 -33 143 8
100 1 123 -45 146 -21 11 -45 35 -56 54 -10 20 -31 41 -46 47 -15 6 -41 31
-58 56 -31 44 -32 44 -92 44 -60 0 -61 0 -92 -44z m-118 -2866 c24 -24 25 -48
4 -78 -19 -28 -57 -29 -84 -2 -24 24 -25 48 -4 78 19 28 57 29 84 2z m-102
-596 c42 -29 18 -104 -35 -104 -27 0 -63 33 -63 58 0 28 29 62 53 62 13 0 33
-7 45 -16z"/>
    <path class="b-mark" d="M3008 5656 c-17 -25 -44 -50 -60 -57 -16 -6 -33 -20 -38 -30 -6 -10
-10 -112 -10 -227 0 -190 -2 -210 -18 -225 -16 -15 -47 -17 -230 -17 -204 0
-212 -1 -232 -22 -11 -12 -20 -25 -20 -30 0 -4 -9 -17 -20 -28 -18 -18 -33
-20 -180 -20 -151 0 -160 -1 -180 -22 -11 -12 -20 -25 -20 -30 0 -4 -9 -17
-20 -28 -18 -18 -33 -20 -130 -20 -99 0 -111 -2 -130 -22 -11 -12 -20 -25 -20
-30 0 -4 -9 -17 -20 -28 -18 -18 -33 -20 -130 -20 -120 0 -126 -3 -162 -68
-16 -31 -19 -32 -83 -32 -71 0 -84 -8 -117 -68 -16 -31 -20 -32 -78 -32 -73 0
-93 -9 -110 -50 -7 -18 -28 -39 -47 -49 -19 -9 -44 -35 -56 -57 -22 -37 -25
-39 -77 -42 -85 -4 -98 -9 -119 -51 -12 -22 -32 -43 -49 -50 -16 -7 -38 -28
-49 -48 -11 -19 -38 -45 -59 -57 -39 -21 -39 -22 -42 -91 -3 -74 -16 -99 -56
-109 -12 -3 -32 -23 -44 -44 -13 -23 -35 -45 -52 -52 -17 -7 -35 -21 -40 -31
-13 -23 -13 -415 0 -438 5 -10 23 -24 40 -31 17 -7 39 -29 52 -51 11 -21 34
-43 50 -50 17 -7 37 -28 48 -49 23 -45 34 -50 111 -50 57 0 61 -2 77 -32 36
-65 42 -68 162 -68 97 0 112 -2 130 -20 11 -11 20 -24 20 -28 0 -5 9 -18 20
-30 21 -22 22 -22 430 -22 456 0 422 -5 462 68 16 30 20 32 77 32 77 0 88 5
111 50 11 21 31 42 48 49 16 7 38 28 49 48 11 19 38 45 59 57 39 21 39 22 42
91 3 69 19 105 47 105 7 0 23 8 35 18 21 17 23 26 23 132 0 149 -1 150 -154
150 -98 0 -110 -2 -129 -22 -11 -12 -20 -25 -20 -30 0 -4 -9 -17 -20 -28 -18
-18 -33 -20 -180 -20 -151 0 -160 -1 -180 -22 -11 -12 -20 -25 -20 -30 0 -4
-9 -17 -20 -28 -19 -19 -33 -20 -224 -20 -112 0 -212 3 -221 6 -9 4 -24 23
-35 44 -23 45 -34 50 -109 50 -85 0 -91 10 -91 152 0 123 5 137 57 152 12 4
32 26 45 49 23 41 25 42 78 45 85 4 98 9 119 51 12 23 32 43 50 51 19 7 40 29
54 54 l22 41 73 5 c77 5 79 6 114 69 16 29 20 31 77 31 77 0 88 5 111 50 11
21 26 40 35 44 9 3 63 6 120 6 94 0 106 2 125 22 11 12 20 25 20 30 0 4 9 17
20 28 18 18 33 20 130 20 99 0 111 2 130 22 11 12 20 25 20 30 0 4 9 17 20 28
18 18 33 20 129 20 136 0 141 4 141 99 0 53 4 72 18 84 27 25 69 21 87 -7 14
-21 15 -47 9 -183 -7 -160 -15 -193 -51 -193 -7 0 -22 -9 -33 -20 -19 -19 -20
-33 -20 -333 0 -341 1 -334 -57 -351 -46 -14 -46 -16 -44 -397 2 -272 -1 -364
-10 -375 -7 -9 -27 -21 -45 -29 -41 -17 -41 -20 -48 -207 -6 -163 -1 -178 54
-178 31 0 39 8 55 55 14 40 57 56 85 30 39 -35 14 -105 -38 -105 -24 0 -52
-25 -52 -46 0 -8 -10 -24 -21 -35 -19 -19 -28 -21 -80 -15 -64 8 -77 0 -111
-62 -16 -31 -20 -32 -78 -32 -73 0 -93 -9 -110 -50 -7 -18 -28 -39 -47 -49
-19 -9 -44 -35 -56 -57 -22 -39 -23 -39 -96 -44 -76 -5 -78 -6 -113 -69 -16
-29 -20 -31 -77 -31 -77 0 -88 -5 -111 -50 -11 -21 -31 -42 -48 -49 -16 -7
-39 -29 -50 -50 -12 -21 -35 -44 -50 -50 -16 -7 -39 -29 -50 -50 -12 -21 -35
-44 -50 -50 -16 -7 -39 -29 -50 -50 -12 -21 -35 -44 -50 -50 -16 -7 -39 -29
-50 -50 -12 -21 -35 -44 -50 -50 -16 -7 -39 -29 -50 -50 -13 -22 -35 -44 -52
-51 -17 -7 -35 -21 -40 -31 -13 -23 -13 -215 0 -238 5 -10 23 -24 40 -31 19
-8 39 -28 50 -50 23 -45 34 -50 111 -50 57 0 61 -2 77 -32 40 -73 6 -68 460
-68 380 0 410 1 425 18 14 15 17 53 20 235 4 197 2 218 -14 233 -29 26 -60 14
-89 -36 l-26 -45 -207 -3 c-130 -1 -215 1 -227 8 -30 16 -46 81 -31 131 9 31
20 44 46 55 21 9 42 29 57 56 23 42 25 43 78 46 85 4 98 9 119 51 12 23 32 43
50 51 19 7 40 29 54 54 22 40 24 41 77 44 85 4 97 9 121 52 24 43 30 46 119
58 53 7 56 9 74 50 21 46 50 61 85 43 26 -14 36 -52 22 -80 -6 -11 -28 -25
-49 -30 -27 -8 -42 -20 -57 -48 -11 -20 -33 -44 -50 -53 -51 -28 -53 -44 -43
-270 5 -113 6 -377 3 -586 -5 -261 -3 -388 4 -402 5 -10 24 -25 41 -32 17 -7
39 -29 52 -51 11 -21 34 -43 50 -50 17 -7 37 -28 48 -49 23 -44 35 -50 104
-50 51 0 86 -19 86 -46 0 -20 41 -54 65 -54 53 0 53 -6 43 648 -9 548 -8 605
6 627 10 15 26 25 39 25 56 0 56 3 58 282 0 142 -3 264 -8 273 -6 9 -27 27
-49 39 -46 25 -57 65 -27 98 15 17 25 19 70 13 70 -9 90 -1 113 44 10 21 26
41 35 45 9 3 86 6 170 6 146 0 155 1 175 22 11 12 20 25 20 30 0 4 9 17 20 28
18 18 33 20 130 20 154 0 150 -6 150 198 0 199 -2 202 -100 202 l-70 0 -27 43
c-36 55 -39 57 -103 57 -64 0 -67 -2 -103 -57 l-27 -43 -65 0 c-69 0 -68 1
-121 -67 -24 -31 -30 -33 -85 -33 -91 0 -99 12 -99 153 0 123 2 129 62 155 37
16 50 67 38 152 -6 37 -7 159 -4 285 7 226 12 255 51 255 7 0 22 9 33 20 19
19 20 33 20 333 0 342 -1 334 58 351 42 14 45 34 37 297 -7 222 -6 252 9 274
20 31 58 33 86 5 19 -19 21 -31 18 -129 -5 -166 -48 -151 444 -151 395 0 409
-1 428 -20 11 -11 20 -24 20 -28 0 -5 9 -18 20 -30 19 -20 30 -22 134 -22 138
0 146 -5 146 -98 0 -66 4 -73 60 -100 30 -15 35 -22 35 -52 0 -31 -5 -37 -38
-54 -21 -10 -48 -33 -60 -52 -12 -18 -34 -38 -48 -44 -14 -6 -36 -28 -47 -49
-12 -21 -35 -44 -50 -50 -16 -7 -39 -29 -50 -50 -12 -21 -35 -44 -50 -50 -16
-7 -39 -29 -51 -51 -25 -45 -36 -50 -107 -50 -59 0 -75 -10 -106 -68 -16 -31
-19 -32 -83 -32 -71 0 -84 -8 -117 -68 -16 -31 -19 -32 -83 -32 -71 0 -84 -8
-117 -68 -16 -31 -19 -32 -83 -32 -71 0 -84 -8 -117 -68 -16 -30 -20 -32 -77
-32 -76 0 -87 -4 -112 -49 -11 -20 -35 -45 -52 -56 -22 -14 -35 -32 -41 -58
-14 -55 2 -107 41 -132 17 -11 41 -36 52 -56 12 -20 28 -40 37 -43 9 -3 153
-6 320 -6 291 0 305 -1 324 -20 11 -11 20 -24 20 -28 0 -5 9 -18 20 -30 20
-21 28 -22 230 -22 197 0 211 -1 230 -20 11 -11 20 -24 20 -28 0 -5 9 -18 20
-30 19 -20 31 -22 125 -22 57 0 111 -3 120 -6 9 -4 24 -23 35 -44 23 -45 34
-50 111 -50 57 0 61 -2 77 -32 32 -60 47 -68 115 -68 96 0 97 -2 97 -202 0
-178 -2 -186 -57 -202 -12 -4 -32 -26 -45 -49 -23 -41 -25 -42 -78 -45 -85 -4
-98 -9 -119 -51 -12 -22 -32 -43 -49 -50 -16 -7 -39 -29 -51 -51 -11 -21 -28
-41 -37 -44 -9 -3 -63 -6 -120 -6 -114 0 -121 -3 -156 -68 -16 -30 -20 -32
-77 -32 -77 0 -88 -5 -111 -50 -11 -21 -26 -40 -35 -44 -9 -3 -63 -6 -120 -6
-94 0 -106 -2 -125 -22 -11 -12 -20 -25 -20 -30 0 -4 -9 -17 -20 -28 -18 -18
-33 -20 -130 -20 -99 0 -111 -2 -130 -22 -11 -12 -20 -25 -20 -30 0 -4 -9 -17
-20 -28 -18 -18 -33 -20 -180 -20 -151 0 -160 -1 -180 -22 -11 -12 -20 -25
-20 -30 0 -4 -9 -17 -20 -28 -18 -18 -33 -20 -132 -20 -62 0 -118 -4 -125 -8
-9 -6 -13 -68 -14 -231 -1 -199 1 -224 17 -242 15 -17 32 -19 175 -19 150 0
159 1 179 22 11 12 20 25 20 30 0 4 9 17 20 28 18 18 33 20 180 20 151 0 160
1 180 22 11 12 20 25 20 30 0 4 9 17 20 28 18 18 33 20 180 20 151 0 160 1
180 22 11 12 20 25 20 30 0 4 9 17 20 28 18 18 33 20 130 20 99 0 111 2 130
22 11 12 20 25 20 30 0 4 9 17 20 28 18 18 33 20 130 20 120 0 126 3 162 68
16 31 19 32 83 32 71 0 84 8 117 68 16 31 20 32 78 32 73 0 93 9 110 50 7 18
28 39 47 49 19 9 44 35 56 57 22 37 25 39 77 42 84 4 98 9 118 48 10 20 35 45
58 57 l39 23 3 71 c3 76 7 83 65 112 31 16 32 18 35 88 3 76 7 83 65 112 l32
16 0 225 0 225 -32 16 c-58 29 -62 36 -65 112 l-3 71 -39 22 c-22 13 -46 35
-54 51 -22 44 -41 53 -109 53 -61 0 -65 1 -81 32 -33 60 -46 68 -117 68 -64 0
-67 1 -83 32 -37 68 -36 68 -212 68 -147 0 -162 2 -180 20 -11 11 -20 24 -20
28 0 5 -9 18 -20 30 -19 20 -31 22 -126 22 -58 0 -113 4 -123 10 -10 5 -24 23
-31 40 -8 19 -28 39 -51 51 -76 38 -77 159 -3 197 20 10 45 35 57 58 22 37 25
39 77 42 85 4 98 9 119 51 12 22 32 43 49 50 16 7 39 29 50 50 12 21 35 44 50
50 16 7 39 29 50 50 12 21 35 44 50 50 16 7 38 28 49 48 11 19 38 45 59 57 39
21 39 22 42 91 3 77 10 90 58 110 66 27 70 160 6 187 -55 24 -62 36 -62 108 0
85 -14 100 -92 100 -74 0 -85 5 -108 50 -23 45 -34 50 -111 50 -57 0 -61 2
-77 32 -36 65 -42 68 -162 68 -97 0 -112 2 -130 20 -11 11 -20 24 -20 28 0 5
-9 18 -20 30 l-21 22 -455 0 c-278 0 -462 4 -474 10 -28 15 -39 62 -33 143 8
100 1 123 -45 146 -21 11 -45 35 -56 54 -10 20 -31 41 -46 47 -15 6 -41 31
-58 56 -31 44 -32 44 -92 44 -60 0 -61 0 -92 -44z m-118 -2866 c24 -24 25 -48
4 -78 -19 -28 -57 -29 -84 -2 -24 24 -25 48 -4 78 19 28 57 29 84 2z m-102
-596 c42 -29 18 -104 -35 -104 -27 0 -63 33 -63 58 0 28 29 62 53 62 13 0 33
-7 45 -16z"/>
  </g>
</svg>
